<svg xmlns="http://www.w3.org/2000/svg" width="425.065" height="514.296" version="1.0"><path style="fill:#e3e3e5;fill-opacity:1;fill-rule:evenodd;stroke:#000;stroke-width:1;stroke-linecap:round;stroke-linejoin:miter;stroke-miterlimit:4;stroke-opacity:1" d="M103.678 271.298h248.81v242.498h-248.81V271.298zm0 138.978h248.487M139.58 271.298v242.09m108.183-241.513v241.367M103.83 310.58h248.24"/><path style="fill:#a00;fill-opacity:1;fill-rule:evenodd;stroke:#000;stroke-width:1;stroke-linecap:round;stroke-linejoin:miter;stroke-miterlimit:4;stroke-dasharray:none;stroke-opacity:1" d="m96.972 148.656-3.5 22.875 5.687-.094-2.187-22.78zm96 0-3.5 22.875 5.687-.094-2.187-22.78zm96 0-3.5 22.875 5.687-.094-2.187-22.78zm96 0-3.5 22.875 5.687-.094-2.187-22.78zM68.097 160.5l14.125 18 4.187-3.875L68.097 160.5zm96 0 14.125 18 4.187-3.875-18.312-14.125zm96 0 14.125 18 4.187-3.875-18.312-14.125zm96 0 14.125 18 4.187-3.875-18.312-14.125zm-231.657.156-18 14.125 3.875 4.188 14.125-18.313zm96 0-18 14.125 3.875 4.188 14.125-18.313zm96 0-18 14.125 3.875 4.188 14.125-18.313zm96 0-18 14.125 3.875 4.188 14.125-18.313zM96.503 178.75c-5.568 0-10.094 4.526-10.094 10.094s4.526 10.062 10.094 10.062 10.094-4.494 10.094-10.062-4.526-10.094-10.094-10.094zm96 0c-5.568 0-10.094 4.526-10.094 10.094s4.526 10.062 10.094 10.062 10.094-4.494 10.094-10.062-4.526-10.094-10.094-10.094zm96 0c-5.568 0-10.094 4.526-10.094 10.094s4.526 10.062 10.094 10.062 10.094-4.494 10.094-10.062-4.526-10.094-10.094-10.094zm96 0c-5.568 0-10.094 4.526-10.094 10.094s4.526 10.062 10.094 10.062 10.094-4.494 10.094-10.062-4.526-10.094-10.094-10.094zm-305.219 6.688-22.812 3.937 22.812 1.781v-5.719zm96 0-22.812 3.937 22.812 1.781v-5.719zm96 0-22.812 3.937 22.812 1.781v-5.719zm96 0-22.812 3.937 22.812 1.781v-5.719zm-253.562.125.03 5.718 22.813-2.031-22.843-3.688zm96 0 .03 5.718 22.813-2.031-22.843-3.688zm96 0 .03 5.718 22.813-2.031-22.843-3.688zm96 0 .03 5.718 22.813-2.031-22.843-3.688zm-319.407 13.25L68.16 217.125l18-14.125-3.844-4.188zm96 0-14.156 18.312 18-14.125-3.844-4.188zm96 0-14.156 18.312 18-14.125-3.844-4.188zm96 0-14.156 18.312 18-14.125-3.844-4.188zm-259.468.53-4.188 3.876 18.313 14.125-14.125-18zm96 0-4.188 3.876 18.313 14.125-14.125-18zm96 0-4.188 3.876 18.313 14.125-14.125-18zm96 0-4.188 3.876 18.313 14.125-14.125-18zM93.315 206.22l3.5 22.875 2.188-22.781-5.688-.094zm96 0 3.5 22.875 2.188-22.781-5.688-.094zm96 0 3.5 22.875 2.188-22.781-5.688-.094zm96 0 3.5 22.875 2.188-22.781-5.688-.094zM336.948.5l-3.5 22.875 5.687-.094L336.948.5zm-28.875 11.844 14.125 18 4.187-3.875-18.312-14.125zm56.344.156-18 14.125 3.875 4.188L364.417 12.5zm-27.938 18.094c-5.568 0-10.094 4.526-10.094 10.093 0 5.568 4.526 10.063 10.094 10.063s10.094-4.495 10.094-10.063c0-5.567-4.526-10.093-10.094-10.093zM319.26 37.28l-22.812 3.938L319.26 43v-5.719zm34.438.125.031 5.719 22.813-2.031-22.844-3.688zm-31.406 13.25L308.135 68.97l18-14.125-3.843-4.188zm28.53.532-4.187 3.874 18.313 14.126-14.125-18zm-17.53 6.874 3.5 22.876 2.187-22.782-5.687-.093zM193.315 313.719l-3.5 22.875 5.688-.094-2.188-22.781zm104.094 0-3.5 22.875 5.688-.094-2.188-22.781zM164.44 325.563l14.125 18 4.188-3.875-18.313-14.125zm104.094 0 14.125 18 4.188-3.875-18.313-14.125zm-47.75.156-18 14.125 3.875 4.187 14.125-18.312zm104.094 0-18 14.125 3.875 4.187 14.125-18.312zm-132.031 18.094c-5.568 0-10.094 4.525-10.094 10.093s4.526 10.063 10.094 10.063c5.567 0 10.093-4.495 10.093-10.063 0-5.568-4.526-10.094-10.093-10.094zm104.093 0c-5.568 0-10.093 4.525-10.093 10.093s4.525 10.063 10.093 10.063 10.094-4.495 10.094-10.063c0-5.568-4.526-10.094-10.094-10.094zM175.628 350.5l-22.813 3.938 22.813 1.78V350.5zm104.094 0-22.813 3.938 22.813 1.78V350.5zm-69.657.125.032 5.719 22.812-2.031-22.844-3.688zm104.094 0 .031 5.719 22.813-2.031-22.844-3.688zm-135.5 13.25-14.156 18.313 18-14.125-3.844-4.188zm104.094 0-14.156 18.313 18-14.125-3.844-4.188zm-75.563.531-4.187 3.875 18.312 14.125-14.125-18zm104.094 0-4.187 3.875 18.312 14.125-14.125-18zm-121.625 6.875 3.5 22.875 2.188-22.781-5.688-.094zm104.094 0 3.5 22.875 2.187-22.781-5.687-.094z"/><path style="fill:#fff;fill-opacity:1;fill-rule:evenodd;stroke:#000;stroke-width:1;stroke-linecap:round;stroke-linejoin:miter;stroke-miterlimit:4;stroke-dasharray:none;stroke-opacity:1" d="m296.6 425.874-3.5 22.875 5.688-.093-2.187-22.782zm-28.874 11.844 14.125 18 4.187-3.875-18.312-14.125zm56.344.156-18 14.125 3.875 4.188 14.125-18.313zm-27.938 18.094c-5.568 0-10.094 4.526-10.094 10.094s4.526 10.062 10.094 10.062 10.094-4.494 10.094-10.062-4.526-10.094-10.094-10.094zm-17.219 6.688-22.812 3.937 22.812 1.781v-5.718zm34.438.125.031 5.718 22.813-2.03-22.844-3.688zm-31.406 13.25-14.157 18.312 18-14.125-3.843-4.187zm28.53.531-4.187 3.875 18.313 14.125-14.125-18zm-17.53 6.875 3.5 22.875 2.187-22.781-5.687-.094zM144.897.5l-3.5 22.875 5.687-.094L144.897.5zm-28.875 11.844 14.125 18 4.187-3.875-18.312-14.125zm56.343.156-18 14.125 3.875 4.188L172.365 12.5zm-27.937 18.094c-5.568 0-10.094 4.526-10.094 10.093 0 5.568 4.526 10.063 10.094 10.063s10.094-4.495 10.094-10.063c0-5.567-4.526-10.093-10.094-10.093zm-17.219 6.687-22.812 3.938L127.209 43v-5.719zm34.438.125.03 5.719 22.813-2.031-22.843-3.688zm-31.407 13.25L116.084 68.97l18-14.125-3.844-4.188zm28.532.532-4.188 3.874 18.313 14.126-14.125-18zm-17.532 6.874 3.5 22.876 2.188-22.782-5.688-.093z"/><path style="fill:#000;fill-opacity:1;fill-rule:evenodd;stroke:none;stroke-width:3.4000001;stroke-linecap:butt;stroke-linejoin:miter;stroke-miterlimit:4;stroke-dasharray:none;stroke-opacity:1" d="m223.597 25.531-2.375 2.407 12.78 12.78-12.78 12.782 2.375 2.406 12.78-12.781 12.782 12.781 2.406-2.406-12.78-12.781 12.78-12.782-2.406-2.406-12.781 12.782-12.781-12.782z"/><path style="opacity:1;fill:#fff;fill-opacity:1;fill-rule:evenodd;stroke:#000;stroke-width:1;stroke-linecap:round;stroke-linejoin:miter;stroke-miterlimit:4;stroke-dasharray:none;stroke-opacity:1" d="M36.312 28.243a16.139 16.139 0 1 1-32.277 0 16.139 16.139 0 1 1 32.277 0z" transform="translate(-3.535 -7.445)"/><path style="opacity:1;fill:#fff;fill-opacity:1;fill-rule:evenodd;stroke:#000;stroke-width:1;stroke-linecap:round;stroke-linejoin:miter;stroke-miterlimit:4;stroke-dasharray:none;stroke-opacity:1" d="M36.312 28.243a16.139 16.139 0 1 1-32.277 0 16.139 16.139 0 1 1 32.277 0z" transform="translate(-3.535 136.19)"/><path style="opacity:1;fill:#fff;fill-opacity:1;fill-rule:evenodd;stroke:#000;stroke-width:1;stroke-linecap:round;stroke-linejoin:miter;stroke-miterlimit:4;stroke-dasharray:none;stroke-opacity:1" d="M36.312 28.243a16.139 16.139 0 1 1-32.277 0 16.139 16.139 0 1 1 32.277 0z" transform="translate(-3.535 264.493)"/><text xml:space="preserve" style="font-size:14px;font-style:normal;font-variant:normal;font-weight:400;font-stretch:normal;text-align:start;line-height:100%;writing-mode:lr-tb;text-anchor:start;fill:#000;fill-opacity:1;stroke:none;stroke-width:1px;stroke-linecap:butt;stroke-linejoin:miter;stroke-opacity:1;font-family:Bitstream Vera Sans;-inkscape-font-specification:Bitstream Vera Sans" x="12.062" y="25.901"><tspan x="12.062" y="25.901">1</tspan></text><text xml:space="preserve" style="font-size:14px;font-style:normal;font-variant:normal;font-weight:400;font-stretch:normal;text-align:start;line-height:100%;writing-mode:lr-tb;text-anchor:start;fill:#000;fill-opacity:1;stroke:none;stroke-width:1px;stroke-linecap:butt;stroke-linejoin:miter;stroke-opacity:1;font-family:Bitstream Vera Sans;-inkscape-font-specification:Bitstream Vera Sans" x="12.373" y="169.628"><tspan x="12.373" y="169.628">2</tspan></text><text xml:space="preserve" style="font-size:14px;font-style:normal;font-variant:normal;font-weight:400;font-stretch:normal;text-align:start;line-height:100%;writing-mode:lr-tb;text-anchor:start;fill:#000;fill-opacity:1;stroke:none;stroke-width:1px;stroke-linecap:butt;stroke-linejoin:miter;stroke-opacity:1;font-family:Bitstream Vera Sans;-inkscape-font-specification:Bitstream Vera Sans" x="12.212" y="297.832"><tspan x="12.212" y="297.832">3</tspan></text><path style="opacity:1;fill:#fff;fill-opacity:1;fill-rule:evenodd;stroke:#000;stroke-width:1;stroke-linecap:round;stroke-linejoin:miter;stroke-miterlimit:4;stroke-dasharray:none;stroke-opacity:1" d="M124.565 85.188c-6.603 0-11.937 5.365-11.937 11.968s5.334 11.969 11.937 11.969 11.97-5.366 11.97-11.969-5.367-11.969-11.97-11.969zM164.315 85.188c-6.603 0-11.968 5.365-11.968 11.968s5.365 11.969 11.968 11.969 11.97-5.366 11.97-11.969-5.367-11.969-11.97-11.969z"/><path style="opacity:1;fill:#a00;fill-opacity:1;fill-rule:evenodd;stroke:#000;stroke-width:1;stroke-linecap:round;stroke-linejoin:miter;stroke-miterlimit:4;stroke-dasharray:none;stroke-opacity:1" d="M317.253 85.188c-6.603 0-11.969 5.365-11.969 11.968s5.366 11.969 11.969 11.969 11.969-5.366 11.969-11.969-5.366-11.969-11.97-11.969zM356.784 85.188c-6.603 0-11.969 5.365-11.969 11.968s5.366 11.969 11.97 11.969c6.602 0 11.968-5.366 11.968-11.969s-5.366-11.969-11.969-11.969z"/><path style="opacity:1;fill:#fff;fill-opacity:1;fill-rule:evenodd;stroke:#000;stroke-width:1;stroke-linecap:round;stroke-linejoin:miter;stroke-miterlimit:4;stroke-dasharray:none;stroke-opacity:1" d="M76.847 236.906c-6.603 0-11.97 5.335-11.97 11.938 0 6.603 5.367 11.968 11.97 11.969 6.602 0 11.937-5.366 11.937-11.97a11.925 11.925 0 0 0-11.937-11.937z"/><path style="opacity:1;fill:#a00;fill-opacity:1;fill-rule:evenodd;stroke:#000;stroke-width:1;stroke-linecap:round;stroke-linejoin:miter;stroke-miterlimit:4;stroke-dasharray:none;stroke-opacity:1" d="M116.378 236.906c-6.603 0-11.969 5.335-11.969 11.938 0 6.603 5.366 11.968 11.969 11.969 6.603 0 11.969-5.366 11.969-11.97 0-6.602-5.366-11.937-11.97-11.937z"/><path style="opacity:1;fill:#fff;fill-opacity:1;fill-rule:evenodd;stroke:#000;stroke-width:1;stroke-linecap:round;stroke-linejoin:miter;stroke-miterlimit:4;stroke-dasharray:none;stroke-opacity:1" d="M172.847 236.906a11.925 11.925 0 0 0-11.938 11.938c0 6.603 5.335 11.968 11.938 11.969 6.602 0 11.968-5.366 11.968-11.97 0-6.602-5.366-11.937-11.968-11.937z"/><path style="opacity:1;fill:#a00;fill-opacity:1;fill-rule:evenodd;stroke:#000;stroke-width:1;stroke-linecap:round;stroke-linejoin:miter;stroke-miterlimit:4;stroke-dasharray:none;stroke-opacity:1" d="M213.19 236.906a11.925 11.925 0 0 0-11.937 11.938c0 6.603 5.334 11.968 11.937 11.969 6.603 0 11.97-5.366 11.97-11.97 0-6.602-5.367-11.937-11.97-11.937z"/><path style="opacity:1;fill:#fff;fill-opacity:1;fill-rule:evenodd;stroke:#000;stroke-width:1;stroke-linecap:round;stroke-linejoin:miter;stroke-miterlimit:4;stroke-dasharray:none;stroke-opacity:1" d="M268.847 236.906c-6.603 0-11.97 5.335-11.97 11.938 0 6.603 5.367 11.968 11.97 11.969 6.602 0 11.937-5.366 11.937-11.97a11.925 11.925 0 0 0-11.937-11.937z"/><path style="opacity:1;fill:#a00;fill-opacity:1;fill-rule:evenodd;stroke:#000;stroke-width:1;stroke-linecap:round;stroke-linejoin:miter;stroke-miterlimit:4;stroke-dasharray:none;stroke-opacity:1" d="M308.378 236.906c-6.603 0-11.969 5.335-11.969 11.938 0 6.603 5.366 11.968 11.969 11.969 6.603 0 11.969-5.366 11.969-11.97 0-6.602-5.366-11.937-11.97-11.937z"/><path style="opacity:1;fill:#fff;fill-opacity:1;fill-rule:evenodd;stroke:#000;stroke-width:1;stroke-linecap:round;stroke-linejoin:miter;stroke-miterlimit:4;stroke-dasharray:none;stroke-opacity:1" d="M364.847 236.906a11.925 11.925 0 0 0-11.938 11.938c0 6.603 5.335 11.968 11.938 11.969 6.602 0 11.968-5.366 11.968-11.97 0-6.602-5.366-11.937-11.968-11.937z"/><path style="opacity:1;fill:#a00;fill-opacity:1;fill-rule:evenodd;stroke:#000;stroke-width:1;stroke-linecap:round;stroke-linejoin:miter;stroke-miterlimit:4;stroke-dasharray:none;stroke-opacity:1" d="M405.19 236.906a11.925 11.925 0 0 0-11.937 11.938c0 6.603 5.334 11.968 11.937 11.969 6.603 0 11.969-5.366 11.97-11.97 0-6.602-5.367-11.937-11.97-11.937zM188.128 282.094a11.925 11.925 0 0 0-11.938 11.937c0 6.603 5.335 11.969 11.938 11.969 6.603 0 11.969-5.366 11.969-11.969s-5.366-11.937-11.97-11.937z"/><path style="opacity:1;fill:#fff;fill-opacity:1;fill-rule:evenodd;stroke:#000;stroke-width:1;stroke-linecap:round;stroke-linejoin:miter;stroke-miterlimit:4;stroke-dasharray:none;stroke-opacity:1" d="M292.222 282.094a11.925 11.925 0 0 0-11.938 11.937c0 6.603 5.335 11.969 11.938 11.969 6.602 0 11.968-5.366 11.968-11.969s-5.366-11.937-11.968-11.937z"/><path style="opacity:1;fill:#a00;fill-opacity:1;fill-rule:evenodd;stroke:#000;stroke-width:1;stroke-linecap:round;stroke-linejoin:miter;stroke-miterlimit:4;stroke-dasharray:none;stroke-opacity:1" d="M120.347 349.875a11.925 11.925 0 0 0-11.938 11.938c0 6.602 5.335 11.968 11.938 11.968 6.602 0 11.968-5.366 11.968-11.969 0-6.602-5.366-11.937-11.968-11.937z"/><path style="opacity:1;fill:#fff;fill-opacity:1;fill-rule:evenodd;stroke:#000;stroke-width:1;stroke-linecap:round;stroke-linejoin:miter;stroke-miterlimit:4;stroke-dasharray:none;stroke-opacity:1" d="M120.347 461.219c-6.603 0-11.938 5.366-11.938 11.969 0 6.602 5.335 11.968 11.938 11.968 6.602 0 11.968-5.366 11.968-11.969 0-6.602-5.366-11.968-11.968-11.968z"/><path style="fill:#a00;fill-opacity:1;fill-rule:evenodd;stroke:#000;stroke-width:1;stroke-linecap:round;stroke-linejoin:miter;stroke-miterlimit:4;stroke-dasharray:none;stroke-opacity:1" d="m193.313 425.874-3.5 22.875 5.687-.093-2.187-22.782zm-28.875 11.844 14.125 18 4.187-3.875-18.312-14.125zm56.344.156-18 14.125 3.875 4.188 14.125-18.313zm-27.938 18.094c-5.568 0-10.094 4.526-10.094 10.094s4.526 10.062 10.094 10.062 10.094-4.494 10.094-10.062-4.526-10.094-10.094-10.094zm-17.219 6.688-22.812 3.937 22.812 1.781v-5.718zm34.438.125.031 5.718 22.813-2.03-22.844-3.688zm-31.406 13.25L164.5 494.343l18-14.125-3.843-4.187zm28.53.531L203 480.437l18.313 14.125-14.125-18zm-17.53 6.875 3.5 22.875 2.187-22.781-5.687-.094z"/><text y="100.984" x="118.856" style="font-size:14px;font-style:normal;font-variant:normal;font-weight:400;font-stretch:normal;text-align:start;line-height:100%;writing-mode:lr-tb;text-anchor:start;fill:#000;fill-opacity:1;stroke:none;stroke-width:1px;stroke-linecap:butt;stroke-linejoin:miter;stroke-opacity:1;font-family:Bitstream Vera Sans;-inkscape-font-specification:Bitstream Vera Sans" xml:space="preserve"><tspan y="100.984" x="118.856">w</tspan></text><text y="100.984" x="158.59" style="font-size:14px;font-style:normal;font-variant:normal;font-weight:400;font-stretch:normal;text-align:start;line-height:100%;writing-mode:lr-tb;text-anchor:start;fill:#000;fill-opacity:1;stroke:none;stroke-width:1px;stroke-linecap:butt;stroke-linejoin:miter;stroke-opacity:1;font-family:Bitstream Vera Sans;-inkscape-font-specification:Bitstream Vera Sans" xml:space="preserve"><tspan y="100.984" x="158.59">w</tspan></text><text y="252.688" x="71.106" style="font-size:14px;font-style:normal;font-variant:normal;font-weight:400;font-stretch:normal;text-align:start;line-height:100%;writing-mode:lr-tb;text-anchor:start;fill:#000;fill-opacity:1;stroke:none;stroke-width:1px;stroke-linecap:butt;stroke-linejoin:miter;stroke-opacity:1;font-family:Bitstream Vera Sans;-inkscape-font-specification:Bitstream Vera Sans" xml:space="preserve"><tspan y="252.688" x="71.106">w</tspan></text><text y="252.688" x="167.137" style="font-size:14px;font-style:normal;font-variant:normal;font-weight:400;font-stretch:normal;text-align:start;line-height:100%;writing-mode:lr-tb;text-anchor:start;fill:#000;fill-opacity:1;stroke:none;stroke-width:1px;stroke-linecap:butt;stroke-linejoin:miter;stroke-opacity:1;font-family:Bitstream Vera Sans;-inkscape-font-specification:Bitstream Vera Sans" xml:space="preserve"><tspan y="252.688" x="167.137">w</tspan></text><text y="252.688" x="263.106" style="font-size:14px;font-style:normal;font-variant:normal;font-weight:400;font-stretch:normal;text-align:start;line-height:100%;writing-mode:lr-tb;text-anchor:start;fill:#000;fill-opacity:1;stroke:none;stroke-width:1px;stroke-linecap:butt;stroke-linejoin:miter;stroke-opacity:1;font-family:Bitstream Vera Sans;-inkscape-font-specification:Bitstream Vera Sans" xml:space="preserve"><tspan y="252.688" x="263.106">w</tspan></text><text y="252.688" x="359.137" style="font-size:14px;font-style:normal;font-variant:normal;font-weight:400;font-stretch:normal;text-align:start;line-height:100%;writing-mode:lr-tb;text-anchor:start;fill:#000;fill-opacity:1;stroke:none;stroke-width:1px;stroke-linecap:butt;stroke-linejoin:miter;stroke-opacity:1;font-family:Bitstream Vera Sans;-inkscape-font-specification:Bitstream Vera Sans" xml:space="preserve"><tspan y="252.688" x="359.137">w</tspan></text><text y="297.875" x="286.512" style="font-size:14px;font-style:normal;font-variant:normal;font-weight:400;font-stretch:normal;text-align:start;line-height:100%;writing-mode:lr-tb;text-anchor:start;fill:#000;fill-opacity:1;stroke:none;stroke-width:1px;stroke-linecap:butt;stroke-linejoin:miter;stroke-opacity:1;font-family:Bitstream Vera Sans;-inkscape-font-specification:Bitstream Vera Sans" xml:space="preserve"><tspan y="297.875" x="286.512">w</tspan></text><text y="477.016" x="114.637" style="font-size:14px;font-style:normal;font-variant:normal;font-weight:400;font-stretch:normal;text-align:start;line-height:100%;writing-mode:lr-tb;text-anchor:start;fill:#000;fill-opacity:1;stroke:none;stroke-width:1px;stroke-linecap:butt;stroke-linejoin:miter;stroke-opacity:1;font-family:Bitstream Vera Sans;-inkscape-font-specification:Bitstream Vera Sans" xml:space="preserve"><tspan y="477.016" x="114.637">w</tspan></text><text xml:space="preserve" style="font-size:14px;font-style:normal;font-variant:normal;font-weight:400;font-stretch:normal;text-align:start;line-height:100%;writing-mode:lr-tb;text-anchor:start;fill:#000;fill-opacity:1;stroke:none;stroke-width:1px;stroke-linecap:butt;stroke-linejoin:miter;stroke-opacity:1;font-family:Bitstream Vera Sans;-inkscape-font-specification:Bitstream Vera Sans" x="182.794" y="299.15"><tspan x="182.794" y="299.15">R</tspan></text><text xml:space="preserve" style="font-size:14px;font-style:normal;font-variant:normal;font-weight:400;font-stretch:normal;text-align:start;line-height:100%;writing-mode:lr-tb;text-anchor:start;fill:#000;fill-opacity:1;stroke:none;stroke-width:1px;stroke-linecap:butt;stroke-linejoin:miter;stroke-opacity:1;font-family:Bitstream Vera Sans;-inkscape-font-specification:Bitstream Vera Sans" x="115.013" y="366.931"><tspan x="115.013" y="366.931">R</tspan></text><text xml:space="preserve" style="font-size:14px;font-style:normal;font-variant:normal;font-weight:400;font-stretch:normal;text-align:start;line-height:100%;writing-mode:lr-tb;text-anchor:start;fill:#000;fill-opacity:1;stroke:none;stroke-width:1px;stroke-linecap:butt;stroke-linejoin:miter;stroke-opacity:1;font-family:Bitstream Vera Sans;-inkscape-font-specification:Bitstream Vera Sans" x="207.857" y="253.962"><tspan x="207.857" y="253.962">R</tspan></text><text xml:space="preserve" style="font-size:14px;font-style:normal;font-variant:normal;font-weight:400;font-stretch:normal;text-align:start;line-height:100%;writing-mode:lr-tb;text-anchor:start;fill:#000;fill-opacity:1;stroke:none;stroke-width:1px;stroke-linecap:butt;stroke-linejoin:miter;stroke-opacity:1;font-family:Bitstream Vera Sans;-inkscape-font-specification:Bitstream Vera Sans" x="303.029" y="253.962"><tspan x="303.029" y="253.962">R</tspan></text><text xml:space="preserve" style="font-size:14px;font-style:normal;font-variant:normal;font-weight:400;font-stretch:normal;text-align:start;line-height:100%;writing-mode:lr-tb;text-anchor:start;fill:#000;fill-opacity:1;stroke:none;stroke-width:1px;stroke-linecap:butt;stroke-linejoin:miter;stroke-opacity:1;font-family:Bitstream Vera Sans;-inkscape-font-specification:Bitstream Vera Sans" x="111.029" y="253.962"><tspan x="111.029" y="253.962">R</tspan></text><text xml:space="preserve" style="font-size:14px;font-style:normal;font-variant:normal;font-weight:400;font-stretch:normal;text-align:start;line-height:100%;writing-mode:lr-tb;text-anchor:start;fill:#000;fill-opacity:1;stroke:none;stroke-width:1px;stroke-linecap:butt;stroke-linejoin:miter;stroke-opacity:1;font-family:Bitstream Vera Sans;-inkscape-font-specification:Bitstream Vera Sans" x="311.904" y="102.259"><tspan x="311.904" y="102.259">R</tspan></text><text xml:space="preserve" style="font-size:14px;font-style:normal;font-variant:normal;font-weight:400;font-stretch:normal;text-align:start;line-height:100%;writing-mode:lr-tb;text-anchor:start;fill:#000;fill-opacity:1;stroke:none;stroke-width:1px;stroke-linecap:butt;stroke-linejoin:miter;stroke-opacity:1;font-family:Bitstream Vera Sans;-inkscape-font-specification:Bitstream Vera Sans" x="351.435" y="102.259"><tspan x="351.435" y="102.259">R</tspan></text><text y="253.962" x="399.857" style="font-size:14px;font-style:normal;font-variant:normal;font-weight:400;font-stretch:normal;text-align:start;line-height:100%;writing-mode:lr-tb;text-anchor:start;fill:#000;fill-opacity:1;stroke:none;stroke-width:1px;stroke-linecap:butt;stroke-linejoin:miter;stroke-opacity:1;font-family:Bitstream Vera Sans;-inkscape-font-specification:Bitstream Vera Sans" xml:space="preserve"><tspan y="253.962" x="399.857">R</tspan></text><path style="fill:none;fill-rule:evenodd;stroke:#000;stroke-width:2.20000005;stroke-linecap:butt;stroke-linejoin:miter;stroke-miterlimit:4;stroke-dasharray:none;stroke-opacity:1" d="m124.361 110.425-25.902 34.7 215.528-34.945-24.192 36.166-120.227-36.166 215.528 34.7-31.767-35.189-159.813 36.9-69.155-36.166z"/><path d="m110.545 282.396-1.822 1.846 9.805 9.805-9.805 9.805 1.822 1.846 9.805-9.805 9.805 9.805 1.846-1.846-9.805-9.805 9.805-9.805-1.846-1.846-9.805 9.805-9.805-9.805z" style="fill:#000;fill-opacity:1;fill-rule:evenodd;stroke:none;stroke-width:3.4000001;stroke-linecap:butt;stroke-linejoin:miter;stroke-miterlimit:4;stroke-dasharray:none;stroke-opacity:1"/></svg>